<svg width="25" height="24" viewBox="0 0 25 24" fill="none" xmlns="http://www.w3.org/2000/svg">
<path d="M20.7508 6.75H4.25073C3.83652 6.75 3.50073 7.08579 3.50073 7.5V19.5C3.50073 19.9142 3.83652 20.25 4.25073 20.25H20.7508C21.165 20.25 21.5008 19.9142 21.5008 19.5V7.5C21.5008 7.08579 21.165 6.75 20.7508 6.75Z" stroke="black" stroke-width="1.5" stroke-linecap="round" stroke-linejoin="round"/>
<path d="M16.25 6.75V5.25C16.25 4.85218 16.092 4.47065 15.8107 4.18934C15.5294 3.90804 15.1478 3.75 14.75 3.75H10.25C9.85218 3.75 9.47065 3.90804 9.18934 4.18934C8.90804 4.47065 8.75 4.85218 8.75 5.25V6.75" stroke="black" stroke-width="1.5" stroke-linecap="round" stroke-linejoin="round"/>
<path d="M21.5008 11.8415C18.7655 13.424 15.6602 14.255 12.5001 14.25C9.34045 14.255 6.2357 13.4243 3.50067 11.8423" stroke="black" stroke-width="1.5" stroke-linecap="round" stroke-linejoin="round"/>
<path d="M11.375 11.25H13.625" stroke="black" stroke-width="1.5" stroke-linecap="round" stroke-linejoin="round"/>
</svg>
