<svg width="32" height="32" viewBox="0 0 32 32" fill="none" xmlns="http://www.w3.org/2000/svg">
<path d="M16 28C22.6274 28 28 22.6274 28 16C28 9.37258 22.6274 4 16 4C9.37258 4 4 9.37258 4 16C4 22.6274 9.37258 28 16 28Z" stroke="#757575" stroke-width="2" stroke-linecap="round" stroke-linejoin="round"/>
<path d="M20.0001 19.0003C19.3704 19.8396 18.4925 20.4596 17.4909 20.7723C16.4892 21.085 15.4146 21.0747 14.4191 20.7428C13.4237 20.4109 12.5579 19.7742 11.9444 18.9229C11.3309 18.0716 11.0007 17.0489 11.0007 15.9995C11.0007 14.9502 11.3309 13.9275 11.9444 13.0762C12.5579 12.2249 13.4236 11.5882 14.4191 11.2563C15.4145 10.9243 16.4892 10.914 17.4908 11.2267C18.4925 11.5394 19.3703 12.1593 20.0001 12.9987" stroke="#757575" stroke-width="2" stroke-linecap="round" stroke-linejoin="round"/>
</svg>
