<svg width="41" height="40" viewBox="0 0 41 40" fill="none" xmlns="http://www.w3.org/2000/svg">
<path d="M31.7502 35H9.24902C8.9175 35 8.59956 34.8683 8.36514 34.6339C8.13072 34.3995 7.99902 34.0815 7.99902 33.75V6.25C7.99902 5.91848 8.13072 5.60054 8.36514 5.36612C8.59956 5.1317 8.9175 5 9.24902 5H24.2502L33.0002 13.75V33.75C33.0002 33.9142 32.9679 34.0767 32.9051 34.2284C32.8423 34.38 32.7502 34.5178 32.6341 34.6339C32.5181 34.75 32.3803 34.842 32.2286 34.9049C32.0769 34.9677 31.9144 35 31.7502 35Z" stroke="#0B1010" stroke-width="2" stroke-linecap="round" stroke-linejoin="round"/>
<path d="M24.25 5V13.75H33.0012" stroke="#0B1010" stroke-width="2" stroke-linecap="round" stroke-linejoin="round"/>
<path d="M22.9678 26.2185L25.4678 28.7185" stroke="#0B1010" stroke-width="2" stroke-linecap="round" stroke-linejoin="round"/>
<path d="M19.8745 27.5C22.2908 27.5 24.2495 25.5412 24.2495 23.125C24.2495 20.7088 22.2908 18.75 19.8745 18.75C17.4583 18.75 15.4995 20.7088 15.4995 23.125C15.4995 25.5412 17.4583 27.5 19.8745 27.5Z" stroke="#0B1010" stroke-width="2" stroke-linecap="round" stroke-linejoin="round"/>
</svg>
