<svg width="23" height="23" viewBox="0 0 23 23" fill="none" xmlns="http://www.w3.org/2000/svg">
<path d="M13.7593 9.83719H16.593" stroke="#0B1010" stroke-width="1.41682" stroke-linecap="round" stroke-linejoin="round"/>
<path d="M6.67523 9.83719H9.50887" stroke="#0B1010" stroke-width="1.41682" stroke-linecap="round" stroke-linejoin="round"/>
<path d="M8.09207 8.42041V11.2541" stroke="#0B1010" stroke-width="1.41682" stroke-linecap="round" stroke-linejoin="round"/>
<path d="M15.532 5.2095L7.7383 5.23254C6.6557 5.23262 5.60771 5.61404 4.77831 6.30985C3.94892 7.00565 3.39112 7.97137 3.20284 9.03748L3.20359 9.03762L1.7545 16.4904C1.66297 17.0097 1.73937 17.5446 1.97261 18.0175C2.20584 18.4904 2.58376 18.8767 3.05148 19.1202C3.5192 19.3637 4.05237 19.4517 4.57354 19.3715C5.09471 19.2913 5.57675 19.0471 5.94964 18.6743L5.9495 18.6741L9.77806 14.4419L15.532 14.4188C16.7533 14.4188 17.9245 13.9337 18.788 13.0702C19.6516 12.2066 20.1367 11.0354 20.1367 9.81417C20.1367 8.59294 19.6516 7.42172 18.788 6.55818C17.9245 5.69464 16.7533 5.2095 15.532 5.2095V5.2095Z" stroke="#0B1010" stroke-width="1.41682" stroke-linecap="round" stroke-linejoin="round"/>
<path d="M20.0667 9.01459L21.5146 16.4904C21.6061 17.0097 21.5297 17.5446 21.2965 18.0175C21.0632 18.4905 20.6853 18.8767 20.2176 19.1202C19.7499 19.3637 19.2167 19.4517 18.6955 19.3715C18.1744 19.2914 17.6923 19.0471 17.3194 18.6743L17.3196 18.6741L13.4937 14.427" stroke="#0B1010" stroke-width="1.41682" stroke-linecap="round" stroke-linejoin="round"/>
</svg>
