<svg width="41" height="40" viewBox="0 0 41 40" fill="none" xmlns="http://www.w3.org/2000/svg">
<path d="M38.1121 19.0288L34.25 20.9599L29.25 11.3846L33.1515 9.43385C33.4446 9.28729 33.7835 9.2617 34.0953 9.3626C34.4071 9.46349 34.6668 9.6828 34.8185 9.97329L38.6611 17.3322C38.738 17.4793 38.7847 17.6403 38.7987 17.8057C38.8126 17.9712 38.7935 18.1377 38.7424 18.2956C38.6913 18.4536 38.6092 18.5997 38.501 18.7256C38.3928 18.8515 38.2606 18.9546 38.1121 19.0288V19.0288Z" stroke="black" stroke-width="2" stroke-linecap="round" stroke-linejoin="round"/>
<path d="M6.74989 20.7925L2.88776 18.8615C2.73928 18.7872 2.60708 18.6842 2.49887 18.5583C2.39066 18.4324 2.3086 18.2862 2.25749 18.1283C2.20639 17.9703 2.18725 17.8038 2.2012 17.6384C2.21515 17.473 2.26191 17.312 2.33874 17.1648L6.18139 9.80594C6.33308 9.51545 6.59278 9.29614 6.90458 9.19524C7.21637 9.09434 7.55532 9.11993 7.84844 9.26649L11.7499 11.2172L6.74989 20.7925Z" stroke="black" stroke-width="2" stroke-linecap="round" stroke-linejoin="round"/>
<path d="M34.25 20.9599L31.75 23.8846L26.0004 29.6342C25.8478 29.7868 25.6583 29.8973 25.4502 29.9549C25.2422 30.0126 25.0228 30.0153 24.8134 29.963L15.7576 27.699C15.5878 27.6566 15.4287 27.5789 15.2908 27.4711L6.75 20.7925" stroke="black" stroke-width="2" stroke-linecap="round" stroke-linejoin="round"/>
<path d="M31.7503 23.8845L24.8753 18.8845L22.8753 20.3845C22.0098 21.0336 20.9572 21.3845 19.8753 21.3845C18.7935 21.3845 17.7408 21.0336 16.8753 20.3845L16.0283 19.7493C15.885 19.6418 15.7665 19.5048 15.6808 19.3476C15.5951 19.1904 15.5442 19.0165 15.5315 18.8379C15.5188 18.6593 15.5446 18.48 15.6072 18.3122C15.6699 18.1444 15.7678 17.992 15.8944 17.8654L22.0092 11.7506C22.1253 11.6346 22.2631 11.5425 22.4147 11.4797C22.5664 11.4169 22.7289 11.3845 22.8931 11.3845H29.2503" stroke="black" stroke-width="2" stroke-linecap="round" stroke-linejoin="round"/>
<path d="M11.8398 11.2172L19.8586 8.87943C20.145 8.79592 20.4519 8.81762 20.7237 8.94063L26.1251 11.3846" stroke="black" stroke-width="2" stroke-linecap="round" stroke-linejoin="round"/>
<path d="M18 33.2596L13.2907 32.0823C13.0996 32.0345 12.9225 31.9423 12.7738 31.813L9.25 28.75" stroke="black" stroke-width="2" stroke-linecap="round" stroke-linejoin="round"/>
</svg>
