<svg width="25" height="25" viewBox="0 0 25 25" fill="none" xmlns="http://www.w3.org/2000/svg">
<path d="M12.9951 15.882C15.0662 15.882 16.7451 14.2031 16.7451 12.132C16.7451 10.0609 15.0662 8.38199 12.9951 8.38199C10.924 8.38199 9.24512 10.0609 9.24512 12.132C9.24512 14.2031 10.924 15.882 12.9951 15.882Z" stroke="#757575" stroke-width="1.5" stroke-miterlimit="10"/>
<path d="M17.1201 3.50699H8.87012C6.38484 3.50699 4.37012 5.52171 4.37012 8.00699V16.257C4.37012 18.7423 6.38484 20.757 8.87012 20.757H17.1201C19.6054 20.757 21.6201 18.7423 21.6201 16.257V8.00699C21.6201 5.52171 19.6054 3.50699 17.1201 3.50699Z" stroke="#757575" stroke-width="1.5" stroke-linecap="round" stroke-linejoin="round"/>
<path d="M17.8701 8.38199C18.4914 8.38199 18.9951 7.87831 18.9951 7.25699C18.9951 6.63567 18.4914 6.13199 17.8701 6.13199C17.2488 6.13199 16.7451 6.63567 16.7451 7.25699C16.7451 7.87831 17.2488 8.38199 17.8701 8.38199Z" fill="#757575"/>
</svg>
