<svg width="160" height="48" viewBox="0 0 160 48" fill="none" xmlns="http://www.w3.org/2000/svg">
<path d="M24 3C12.4031 3 3 12.4031 3 24C3 35.5969 12.4031 45 24 45C35.5969 45 45 35.5969 45 24C45 12.4031 35.5969 3 24 3ZM35.4234 30.6188L24 37.2188L12.5766 30.6188V17.4281L17.7328 14.4469L17.7141 14.4375H17.7234L24 10.8281L30.2812 14.4375H30.2719L30.2578 14.4469L35.4187 17.4281V30.6188H35.4234ZM14.4328 25.1578L18.5391 27.4969V31.9219L23.0719 34.5422V24.6L14.4328 19.6125V25.1578ZM23.9906 18.0422L19.5938 15.5156L15.3234 17.9813L24.0047 22.9969L32.6859 17.9859L28.4016 15.5109L23.9906 18.0422ZM24.9281 34.5422L29.4891 31.9078V27.4969L33.5672 25.1766V19.6172L24.9281 24.6094V34.5422Z" fill="url(#paint0_linear_94_7)"/>
<path d="M71.3 20.39C72.1267 20.63 72.76 21.05 73.2 21.65C73.6533 22.25 73.88 22.99 73.88 23.87C73.88 25.0833 73.4467 26.0367 72.58 26.73C71.7267 27.41 70.5333 27.75 69 27.75H62.54V13.51H68.8C70.2667 13.51 71.42 13.8433 72.26 14.51C73.1 15.1633 73.52 16.07 73.52 17.23C73.52 17.9767 73.32 18.63 72.92 19.19C72.5333 19.7367 71.9933 20.1367 71.3 20.39ZM65.06 19.51H68.38C70.1667 19.51 71.06 18.8433 71.06 17.51C71.06 16.8433 70.84 16.3433 70.4 16.01C69.96 15.6767 69.2867 15.51 68.38 15.51H65.06V19.51ZM68.72 25.75C69.6533 25.75 70.3333 25.5833 70.76 25.25C71.2 24.9167 71.42 24.39 71.42 23.67C71.42 22.9367 71.2 22.3967 70.76 22.05C70.3333 21.7033 69.6533 21.53 68.72 21.53H65.06V25.75H68.72ZM85.0086 22.83H78.0486C78.1019 23.91 78.3686 24.71 78.8486 25.23C79.3419 25.7367 80.0686 25.99 81.0286 25.99C82.1353 25.99 83.1619 25.63 84.1086 24.91L84.8286 26.63C84.3486 27.0167 83.7553 27.33 83.0486 27.57C82.3553 27.7967 81.6486 27.91 80.9286 27.91C79.2753 27.91 77.9753 27.4433 77.0286 26.51C76.0819 25.5767 75.6086 24.2967 75.6086 22.67C75.6086 21.6433 75.8153 20.73 76.2286 19.93C76.6419 19.13 77.2219 18.51 77.9686 18.07C78.7153 17.6167 79.5619 17.39 80.5086 17.39C81.8953 17.39 82.9886 17.8433 83.7886 18.75C84.6019 19.6433 85.0086 20.8767 85.0086 22.45V22.83ZM80.5686 19.19C79.9019 19.19 79.3553 19.39 78.9286 19.79C78.5153 20.1767 78.2486 20.7433 78.1286 21.49H82.8286C82.7486 20.73 82.5153 20.1567 82.1286 19.77C81.7553 19.3833 81.2353 19.19 80.5686 19.19ZM92.5656 17.41C92.9523 17.41 93.2856 17.4633 93.5656 17.57L93.5456 19.85C93.119 19.6767 92.679 19.59 92.2256 19.59C91.3723 19.59 90.719 19.8367 90.2656 20.33C89.8256 20.8233 89.6056 21.4767 89.6056 22.29V27.75H87.1256V20.51C87.1256 19.4433 87.0723 18.49 86.9656 17.65H89.3056L89.5056 19.43C89.759 18.7767 90.159 18.2767 90.7056 17.93C91.2523 17.5833 91.8723 17.41 92.5656 17.41ZM101.858 27.75L97.4377 23.09V27.75H94.9577V13.03H97.4377V22.11L101.598 17.67H104.618L100.078 22.49L104.978 27.75H101.858ZM110.417 27.91C109.39 27.91 108.483 27.6967 107.697 27.27C106.923 26.8433 106.323 26.2367 105.897 25.45C105.483 24.65 105.277 23.7167 105.277 22.65C105.277 21.5833 105.483 20.6567 105.897 19.87C106.323 19.07 106.923 18.4567 107.697 18.03C108.483 17.6033 109.39 17.39 110.417 17.39C111.43 17.39 112.323 17.6033 113.097 18.03C113.87 18.4567 114.463 19.07 114.877 19.87C115.303 20.6567 115.517 21.5833 115.517 22.65C115.517 23.7167 115.303 24.65 114.877 25.45C114.463 26.2367 113.87 26.8433 113.097 27.27C112.323 27.6967 111.43 27.91 110.417 27.91ZM110.397 25.95C111.25 25.95 111.897 25.6767 112.337 25.13C112.79 24.57 113.017 23.7433 113.017 22.65C113.017 21.57 112.79 20.75 112.337 20.19C111.883 19.6167 111.243 19.33 110.417 19.33C109.577 19.33 108.93 19.6167 108.477 20.19C108.023 20.75 107.797 21.57 107.797 22.65C107.797 23.7433 108.017 24.57 108.457 25.13C108.91 25.6767 109.557 25.95 110.397 25.95ZM127.332 13.03V27.75H124.873V26.13C124.566 26.69 124.126 27.13 123.553 27.45C122.979 27.7567 122.326 27.91 121.592 27.91C120.726 27.91 119.953 27.69 119.273 27.25C118.593 26.81 118.059 26.19 117.673 25.39C117.299 24.5767 117.113 23.65 117.113 22.61C117.113 21.57 117.299 20.6567 117.673 19.87C118.046 19.0833 118.573 18.4767 119.252 18.05C119.933 17.61 120.713 17.39 121.592 17.39C122.313 17.39 122.953 17.5433 123.513 17.85C124.086 18.1433 124.526 18.5633 124.833 19.11V13.03H127.332ZM122.253 25.95C123.079 25.95 123.719 25.6633 124.173 25.09C124.639 24.5167 124.873 23.7033 124.873 22.65C124.873 21.5967 124.646 20.7833 124.193 20.21C123.739 19.6367 123.099 19.35 122.273 19.35C121.433 19.35 120.779 19.6367 120.313 20.21C119.859 20.77 119.633 21.57 119.633 22.61C119.633 23.6633 119.859 24.4833 120.313 25.07C120.779 25.6567 121.426 25.95 122.253 25.95ZM130.055 17.65H132.535V27.75H130.055V17.65ZM132.675 13.07V15.53H129.895V13.07H132.675ZM141.05 17.39C143.463 17.39 144.67 18.7767 144.67 21.55V27.75H142.17V21.67C142.17 20.87 142.017 20.29 141.71 19.93C141.403 19.5567 140.93 19.37 140.29 19.37C139.53 19.37 138.917 19.6167 138.45 20.11C137.983 20.59 137.75 21.23 137.75 22.03V27.75H135.27V20.51C135.27 19.4433 135.217 18.49 135.11 17.65H137.45L137.63 19.31C137.977 18.6967 138.443 18.2233 139.03 17.89C139.63 17.5567 140.303 17.39 141.05 17.39ZM157.081 17.65V27.43C157.081 29.0033 156.648 30.1967 155.781 31.01C154.914 31.8233 153.641 32.23 151.961 32.23C150.401 32.23 149.028 31.9033 147.841 31.25L148.241 29.35C149.468 29.99 150.688 30.31 151.901 30.31C153.701 30.31 154.601 29.4167 154.601 27.63V25.63C154.294 26.1767 153.848 26.6233 153.261 26.97C152.674 27.3033 152.014 27.47 151.281 27.47C150.401 27.47 149.614 27.2633 148.921 26.85C148.241 26.4233 147.708 25.83 147.321 25.07C146.948 24.2967 146.761 23.4167 146.761 22.43C146.761 21.4433 146.948 20.57 147.321 19.81C147.708 19.0367 148.241 18.4433 148.921 18.03C149.614 17.6033 150.401 17.39 151.281 17.39C152.028 17.39 152.688 17.55 153.261 17.87C153.848 18.1767 154.294 18.61 154.601 19.17V17.65H157.081ZM151.941 25.51C152.768 25.51 153.414 25.2367 153.881 24.69C154.361 24.1433 154.601 23.39 154.601 22.43C154.601 21.47 154.368 20.7167 153.901 20.17C153.434 19.6233 152.781 19.35 151.941 19.35C151.114 19.35 150.461 19.6233 149.981 20.17C149.514 20.7167 149.281 21.47 149.281 22.43C149.281 23.39 149.514 24.1433 149.981 24.69C150.461 25.2367 151.114 25.51 151.941 25.51Z" fill="black"/>
<path d="M61 43.25L87.5 39.75L111 43.25L135 39.75L159 43.25" stroke="#F19190" stroke-width="1.4"/>
<defs>
<linearGradient id="paint0_linear_94_7" x1="24" y1="3" x2="24" y2="45" gradientUnits="userSpaceOnUse">
<stop stop-color="#21E3D6"/>
<stop offset="0.453125" stop-color="#31C1B8"/>
<stop offset="1" stop-color="#54ABCD"/>
</linearGradient>
</defs>
</svg>
