<svg width="41" height="40" viewBox="0 0 41 40" fill="none" xmlns="http://www.w3.org/2000/svg">
<path d="M15.5 20.001H25.5" stroke="#0B1010" stroke-width="2" stroke-linecap="round" stroke-linejoin="round"/>
<path d="M15.5 25.001H25.5" stroke="#0B1010" stroke-width="2" stroke-linecap="round" stroke-linejoin="round"/>
<path d="M9.25 6.25098H31.75C32.0815 6.25098 32.3995 6.38267 32.6339 6.61709C32.8683 6.85151 33 7.16946 33 7.50098V31.251C33 32.2455 32.6049 33.1994 31.9017 33.9026C31.1984 34.6059 30.2446 35.001 29.25 35.001H11.75C10.7554 35.001 9.80161 34.6059 9.09835 33.9026C8.39509 33.1994 8 32.2455 8 31.251V7.50098C8 7.16946 8.1317 6.85151 8.36612 6.61709C8.60054 6.38267 8.91848 6.25098 9.25 6.25098Z" stroke="#0B1010" stroke-width="2" stroke-linecap="round" stroke-linejoin="round"/>
<path d="M13 3.75098V8.75098" stroke="#0B1010" stroke-width="2" stroke-linecap="round" stroke-linejoin="round"/>
<path d="M20.5 3.75098V8.75098" stroke="#0B1010" stroke-width="2" stroke-linecap="round" stroke-linejoin="round"/>
<path d="M28 3.75098V8.75098" stroke="#0B1010" stroke-width="2" stroke-linecap="round" stroke-linejoin="round"/>
</svg>
