<svg width="28" height="28" viewBox="0 0 28 28" fill="none" xmlns="http://www.w3.org/2000/svg">
<path d="M11.8846 15.5821H4.69228C4.46787 15.5821 4.25265 15.493 4.09396 15.3343C3.93528 15.1756 3.84613 14.9604 3.84613 14.736V7.96676C3.84613 7.74235 3.93528 7.52712 4.09396 7.36844C4.25265 7.20975 4.46787 7.12061 4.69228 7.12061H11.0384C11.2629 7.12061 11.4781 7.20975 11.6368 7.36844C11.7954 7.52712 11.8846 7.74235 11.8846 7.96676V17.2745C11.8846 18.3965 11.4389 19.4726 10.6454 20.2661C9.85201 21.0595 8.77589 21.5052 7.65382 21.5052" stroke="black" stroke-width="1.69231" stroke-linecap="round" stroke-linejoin="round"/>
<path d="M24.1538 15.5821H16.9615C16.7371 15.5821 16.5219 15.493 16.3632 15.3343C16.2045 15.1756 16.1154 14.9604 16.1154 14.736V7.96676C16.1154 7.74235 16.2045 7.52712 16.3632 7.36844C16.5219 7.20975 16.7371 7.12061 16.9615 7.12061H23.3077C23.5321 7.12061 23.7473 7.20975 23.906 7.36844C24.0647 7.52712 24.1538 7.74235 24.1538 7.96676V17.2745C24.1538 18.3965 23.7081 19.4726 22.9147 20.2661C22.1212 21.0595 21.0451 21.5052 19.923 21.5052" stroke="black" stroke-width="1.69231" stroke-linecap="round" stroke-linejoin="round"/>
</svg>
