<svg width="25" height="24" viewBox="0 0 25 24" fill="none" xmlns="http://www.w3.org/2000/svg">
<path d="M9.31801 17.3033C8.25735 20.4853 4.01471 20.4853 4.01471 20.4853C4.01471 20.4853 4.01471 16.2427 7.19669 15.182" stroke="#0B1010" stroke-width="1.4375" stroke-linecap="round" stroke-linejoin="round"/>
<path d="M18.8639 9.87864L12.4999 16.2426L8.25726 12L14.6212 5.636C17.031 3.22623 19.4407 3.24974 20.4684 3.40307C20.6267 3.42666 20.7732 3.50045 20.8863 3.61358C20.9994 3.7267 21.0732 3.87318 21.0968 4.03141C21.2501 5.05911 21.2736 7.46887 18.8639 9.87864Z" stroke="#0B1010" stroke-width="1.4375" stroke-linecap="round" stroke-linejoin="round"/>
<path d="M17.8033 10.9393V16.9926C17.8033 17.0911 17.7839 17.1886 17.7462 17.2796C17.7085 17.3706 17.6533 17.4533 17.5836 17.523L14.5516 20.555C14.4556 20.651 14.3354 20.7191 14.2037 20.7521C14.072 20.7852 13.9338 20.7818 13.8039 20.7425C13.674 20.7032 13.5572 20.6293 13.4659 20.5288C13.3747 20.4283 13.3124 20.3049 13.2858 20.1718L12.5 16.2426" stroke="#0B1010" stroke-width="1.4375" stroke-linecap="round" stroke-linejoin="round"/>
<path d="M13.5607 6.69666H7.50738C7.40889 6.69666 7.31136 6.71605 7.22037 6.75375C7.12938 6.79144 7.0467 6.84668 6.97705 6.91632L3.94501 9.94837C3.84902 10.0444 3.78088 10.1646 3.74787 10.2963C3.71485 10.4279 3.71818 10.5661 3.75752 10.696C3.79686 10.826 3.87072 10.9428 3.97124 11.034C4.07175 11.1253 4.19514 11.1875 4.32826 11.2141L8.25738 12" stroke="#0B1010" stroke-width="1.4375" stroke-linecap="round" stroke-linejoin="round"/>
</svg>
