<svg width="23" height="23" viewBox="0 0 23 23" fill="none" xmlns="http://www.w3.org/2000/svg">
<path d="M12.3244 15.7368L10.6529 20.2739C10.6037 20.4075 10.5147 20.5228 10.3979 20.6042C10.2812 20.6856 10.1422 20.7292 9.9999 20.7292C9.85756 20.7292 9.71864 20.6856 9.60189 20.6042C9.48513 20.5228 9.39614 20.4075 9.34693 20.2739L7.67537 15.7368C7.64056 15.6424 7.58566 15.5565 7.51446 15.4853C7.44326 15.4141 7.35745 15.3592 7.26297 15.3244L2.72587 13.6529C2.59231 13.6037 2.47705 13.5147 2.39563 13.3979C2.31422 13.2812 2.27057 13.1422 2.27057 12.9999C2.27057 12.8576 2.31422 12.7186 2.39563 12.6019C2.47705 12.4851 2.59231 12.3961 2.72587 12.3469L7.26297 10.6754C7.35745 10.6406 7.44326 10.5857 7.51446 10.5145C7.58566 10.4433 7.64056 10.3575 7.67537 10.263L9.34693 5.72587C9.39614 5.59231 9.48513 5.47705 9.60189 5.39563C9.71864 5.31422 9.85756 5.27057 9.9999 5.27057C10.1422 5.27057 10.2812 5.31422 10.3979 5.39563C10.5147 5.47705 10.6037 5.59231 10.6529 5.72587L12.3244 10.263C12.3592 10.3575 12.4141 10.4433 12.4853 10.5145C12.5565 10.5857 12.6424 10.6406 12.7368 10.6754L17.2739 12.3469C17.4075 12.3961 17.5228 12.4851 17.6042 12.6019C17.6856 12.7186 17.7292 12.8576 17.7292 12.9999C17.7292 13.1422 17.6856 13.2812 17.6042 13.3979C17.5228 13.5147 17.4075 13.6037 17.2739 13.6529L12.7368 15.3244C12.6424 15.3592 12.5565 15.4141 12.4853 15.4853C12.4141 15.5565 12.3592 15.6424 12.3244 15.7368V15.7368Z" stroke="#0B1010" stroke-width="1.39175" stroke-linecap="round" stroke-linejoin="round"/>
<path d="M15.5669 1.86591V6.04115" stroke="#0B1010" stroke-width="1.39175" stroke-linecap="round" stroke-linejoin="round"/>
<path d="M17.6545 3.95355H13.4792" stroke="#0B1010" stroke-width="1.39175" stroke-linecap="round" stroke-linejoin="round"/>
<path d="M19.7421 6.73703V9.52053" stroke="#0B1010" stroke-width="1.39175" stroke-linecap="round" stroke-linejoin="round"/>
<path d="M21.1339 8.12875H18.3504" stroke="#0B1010" stroke-width="1.39175" stroke-linecap="round" stroke-linejoin="round"/>
</svg>
