<svg width="32" height="32" viewBox="0 0 32 32" fill="none" xmlns="http://www.w3.org/2000/svg">
<path d="M29.8958 12.1764C29.7709 11.7844 29.5308 11.4392 29.2068 11.1857C28.8828 10.9322 28.4899 10.7823 28.0794 10.7555L20.6555 10.236L17.9016 3.30139C17.7526 2.91802 17.4912 2.5886 17.1518 2.35632C16.8123 2.12403 16.4106 1.9997 15.9993 1.99963H15.9973C15.5866 2.00037 15.1857 2.12501 14.847 2.35726C14.5083 2.58951 14.2476 2.91856 14.0989 3.30139L11.304 10.276L3.92115 10.7555C3.51065 10.7823 3.11775 10.9322 2.79373 11.1857C2.4697 11.4392 2.2296 11.7844 2.10475 12.1764C1.97303 12.5739 1.96407 13.0019 2.07903 13.4046C2.19399 13.8073 2.42755 14.1661 2.74928 14.4342L8.42897 19.235L6.73951 25.8805C6.62306 26.3281 6.64448 26.8005 6.80095 27.2358C6.95742 27.671 7.24166 28.0489 7.61646 28.3199C7.97832 28.5832 8.41105 28.7315 8.85833 28.7454C9.30561 28.7593 9.74673 28.6383 10.1243 28.3981L15.9837 24.6862C15.9915 24.6803 15.9993 24.6764 16.0169 24.6862L22.3215 28.6803C22.6638 28.899 23.0641 29.0093 23.4701 28.9967C23.8761 28.9842 24.2688 28.8494 24.5969 28.61C24.9365 28.3645 25.1941 28.0222 25.336 27.6279C25.4778 27.2336 25.4973 26.8056 25.3919 26.4L23.5969 19.1403L29.2512 14.4342C29.573 14.1661 29.8065 13.8073 29.9215 13.4046C30.0364 13.0019 30.0275 12.5739 29.8958 12.1764Z" fill="#FAEA4B"/>
</svg>
