<svg width="41" height="40" viewBox="0 0 41 40" fill="none" xmlns="http://www.w3.org/2000/svg">
<path d="M20.5 25C23.9518 25 26.75 22.2018 26.75 18.75C26.75 15.2982 23.9518 12.5 20.5 12.5C17.0482 12.5 14.25 15.2982 14.25 18.75C14.25 22.2018 17.0482 25 20.5 25Z" stroke="#0B1010" stroke-width="2" stroke-linecap="round" stroke-linejoin="round"/>
<path d="M34.25 7.5H6.75C6.05964 7.5 5.5 8.05964 5.5 8.75V31.25C5.5 31.9404 6.05964 32.5 6.75 32.5H34.25C34.9404 32.5 35.5 31.9404 35.5 31.25V8.75C35.5 8.05964 34.9404 7.5 34.25 7.5Z" stroke="#0B1010" stroke-width="2" stroke-linecap="round" stroke-linejoin="round"/>
<path d="M9.89014 32.4993C10.6665 30.3059 12.1035 28.4071 14.0035 27.0641C15.9035 25.7211 18.173 25 20.4997 25C22.8264 25 25.096 25.7211 26.9959 27.0641C28.8959 28.4071 30.333 30.3059 31.1093 32.4993" stroke="#0B1010" stroke-width="2" stroke-linecap="round" stroke-linejoin="round"/>
</svg>
