<svg width="33" height="33" viewBox="0 0 33 33" fill="none" xmlns="http://www.w3.org/2000/svg">
<path d="M16.5166 28.7727C23.144 28.7727 28.5166 23.4001 28.5166 16.7727C28.5166 10.1453 23.144 4.77271 16.5166 4.77271C9.88918 4.77271 4.5166 10.1453 4.5166 16.7727C4.5166 23.4001 9.88918 28.7727 16.5166 28.7727Z" stroke="#757575" stroke-width="2" stroke-linecap="round" stroke-linejoin="round"/>
<path d="M16.5166 20.7727C19.278 20.7727 21.5166 18.5341 21.5166 15.7727C21.5166 13.0113 19.278 10.7727 16.5166 10.7727C13.7552 10.7727 11.5166 13.0113 11.5166 15.7727C11.5166 18.5341 13.7552 20.7727 16.5166 20.7727Z" stroke="#757575" stroke-width="2" stroke-linecap="round" stroke-linejoin="round"/>
<path d="M8.49121 25.6945C9.24447 24.2135 10.3929 22.9698 11.8092 22.1012C13.2256 21.2325 14.8548 20.7727 16.5163 20.7727C18.1779 20.7727 19.807 21.2325 21.2234 22.1011C22.6398 22.9698 23.7882 24.2134 24.5414 25.6944" stroke="#757575" stroke-width="2" stroke-linecap="round" stroke-linejoin="round"/>
</svg>
