<svg width="25" height="25" viewBox="0 0 25 25" fill="none" xmlns="http://www.w3.org/2000/svg">
<path d="M5.25407 16.7256C4.13588 14.8406 3.74428 12.6122 4.1528 10.4589C4.56132 8.30561 5.74187 6.37551 7.47276 5.03104C9.20364 3.68657 11.3658 3.02021 13.5532 3.15709C15.7407 3.29397 17.8029 4.22468 19.3526 5.77445C20.9024 7.32421 21.8331 9.38643 21.97 11.5739C22.1069 13.7613 21.4406 15.9234 20.0961 17.6543C18.7517 19.3852 16.8216 20.5658 14.6683 20.9743C12.515 21.3829 10.2866 20.9913 8.40161 19.8731L8.40163 19.873L5.2932 20.7611C5.16459 20.7979 5.0285 20.7995 4.89903 20.766C4.76955 20.7324 4.6514 20.6649 4.55682 20.5703C4.46225 20.4757 4.39468 20.3576 4.36113 20.2281C4.32758 20.0986 4.32927 19.9625 4.36601 19.8339L5.25413 16.7255L5.25407 16.7256Z" stroke="#757575" stroke-width="1.5" stroke-linecap="round" stroke-linejoin="round"/>
<path d="M15.2558 17.382C14.2691 17.3834 13.2918 17.1901 12.3799 16.8131C11.468 16.4362 10.6395 15.883 9.94182 15.1853C9.24411 14.4876 8.69093 13.6591 8.31398 12.7472C7.93703 11.8353 7.74372 10.858 7.74512 9.87133C7.74736 9.17681 8.02497 8.51152 8.51708 8.02141C9.00918 7.53131 9.67559 7.2564 10.3701 7.25699V7.25699C10.484 7.25699 10.5959 7.2871 10.6945 7.34428C10.793 7.40146 10.8746 7.48367 10.9312 7.58258L12.0272 9.50064C12.0933 9.61631 12.1274 9.7475 12.126 9.88072C12.1246 10.0139 12.0877 10.1444 12.0191 10.2586L11.1389 11.7257C11.5918 12.7306 12.3965 13.5353 13.4015 13.9882V13.9882L14.8685 13.108C14.9827 13.0394 15.1132 13.0026 15.2464 13.0011C15.3796 12.9997 15.5108 13.0338 15.6265 13.0999L17.5445 14.1959C17.6434 14.2525 17.7256 14.3341 17.7828 14.4327C17.84 14.5312 17.8701 14.6431 17.8701 14.757V14.757C17.8681 15.4507 17.5924 16.1156 17.1028 16.6072C16.6133 17.0987 15.9495 17.3772 15.2558 17.382V17.382Z" stroke="#757575" stroke-width="1.5" stroke-linecap="round" stroke-linejoin="round"/>
</svg>
